<?xml version="1.0" encoding="UTF-8"?>
<svg width="80px" height="80px" viewBox="0 0 80 80" version="1.1" xmlns="http://www.w3.org/2000/svg" xmlns:xlink="http://www.w3.org/1999/xlink">
    <!-- Generator: Sketch 50.2 (55047) - http://www.bohemiancoding.com/sketch -->
    <title>calendar</title>
    <desc>Created with Sketch.</desc>
    <defs></defs>
    <g id="Page-1" stroke="none" stroke-width="1" fill="none" fill-rule="evenodd">
        <g id="mockup" transform="translate(-800.000000, -1190.000000)" fill-rule="nonzero">
            <g id="Section-2---Features" transform="translate(0.000000, 926.000000)">
                <g id="Feature-2" transform="translate(643.000000, 264.000000)">
                    <g id="calendar" transform="translate(157.000000, 0.000000)">
                        <path d="M4.99136634,0 L74.8698614,0 C77.6150495,0 79.8612277,2.2460198 79.8612277,4.99136634 L79.8612277,74.8698614 C79.8612277,77.6150495 77.6152079,79.8612277 74.8698614,79.8612277 L4.99136634,79.8612277 C2.2460198,79.8610693 0,77.6150495 0,74.869703 L0,4.99136634 C0,2.2460198 2.2460198,0 4.99136634,0 Z" id="Shape" fill="#F7A847"></path>
                        <path d="M9.98257426,7.4870495 L69.8783366,7.4870495 C71.2510099,7.4870495 72.3740198,8.61005941 72.3740198,9.98273267 L72.3740198,67.3828119 C72.3740198,68.7554851 71.2510099,69.878495 69.8783366,69.878495 L9.98257426,69.878495 C8.60990099,69.878495 7.48689109,68.7554851 7.48689109,67.3828119 L7.48689109,9.98257426 C7.4870495,8.61005941 8.61005941,7.4870495 9.98257426,7.4870495 Z" id="Shape" fill="#FFFFFF"></path>
                        <path d="M7.4870495,67.3828119 C7.4870495,68.7554851 8.61005941,69.878495 9.98273267,69.878495 L69.878495,69.878495 C71.2511683,69.878495 72.3741782,68.7554851 72.3741782,67.3828119 L72.3741782,39.9306139 L7.4870495,39.9306139 C7.4870495,39.9306139 7.4870495,67.3828119 7.4870495,67.3828119 Z" id="Shape" fill="#F5F5F5"></path>
                        <path d="M69.878495,67.3828119 L9.98257426,67.3828119 C8.60990099,67.3828119 7.48689109,66.259802 7.48689109,64.8871287 L7.48689109,67.3828119 C7.48689109,68.7554851 8.60990099,69.878495 9.98257426,69.878495 L69.8783366,69.878495 C71.2510099,69.878495 72.3740198,68.7554851 72.3740198,67.3828119 L72.3740198,64.8871287 C72.3741782,66.259802 71.2510099,67.3828119 69.878495,67.3828119 Z" id="Shape" fill="#E2E0E0"></path>
                        <path d="M36.0622574,47.4799208 L29.9478812,47.4799208 C32.817901,43.9860594 37.9963564,39.4938614 37.9963564,34.9392475 C37.9963564,30.7589703 34.6895842,28.1386139 30.5717228,28.1386139 C26.4538614,28.1386139 22.7103366,31.4453861 22.7103366,35.5632475 C22.7103366,36.8110891 23.5214257,37.934099 25.143604,37.934099 C28.3255446,37.934099 26.5162772,32.6308119 30.3844752,32.6308119 C31.7571485,32.6308119 32.8177426,33.8162376 32.8177426,35.126495 C32.8177426,36.3119208 32.2561584,37.3102574 31.6323168,38.183604 C29.0742178,41.802297 26.0795248,44.7347327 23.3341782,47.9790891 C23.0222574,48.3534257 22.585505,48.9774257 22.585505,49.6636832 C22.585505,51.1610297 23.7085149,51.8474455 25.2060198,51.8474455 L36.3740198,51.8474455 C37.6218614,51.8474455 38.8072871,51.223604 38.8072871,49.6636832 C38.6827723,48.1037624 37.4973465,47.4799208 36.0622574,47.4799208 Z M53.5318812,38.9322772 C55.2788911,37.8092673 56.152396,36.0622574 56.152396,34.0033267 C56.152396,31.5076436 53.9686337,28.1384554 49.3517624,28.1384554 C45.7954851,28.1384554 42.3638812,30.8212277 42.3638812,33.3793267 C42.3638812,34.5647525 43.1125545,35.7501782 44.4228119,35.7501782 C46.6065743,35.7501782 46.1698218,32.5682376 49.2269307,32.5682376 C50.6618614,32.5682376 51.5353663,33.5041584 51.5353663,34.752 C51.5353663,38.3082772 46.9807525,36.0622574 46.9807525,39.4312871 C46.9807525,43.2372277 52.4088713,39.9304554 52.4088713,44.4226535 C52.4088713,46.1072475 51.036198,47.417505 49.4140198,47.417505 C45.7953267,47.417505 46.294495,43.6739802 44.1107327,43.6739802 C42.9877228,43.6739802 41.6774653,44.5474851 41.6774653,45.8577426 C41.6774653,48.4158416 44.609901,51.909703 49.351604,51.909703 C53.9062178,51.7848713 57.4000792,48.5405149 57.4000792,44.6723168 C57.4000792,42.1142178 55.8403168,39.9928713 53.5318812,38.9322772 Z" id="Shape" fill="#40545E"></path>
                        <path d="M7.4870495,36.1870891 C6.80079208,36.1870891 6.23920792,36.7486733 6.23920792,37.4349307 L6.23920792,41.1784554 C6.23920792,41.8647129 6.80079208,42.426297 7.4870495,42.426297 C8.17330693,42.426297 8.73489109,41.8647129 8.73489109,41.1784554 L8.73489109,37.4349307 C8.73473267,36.7485149 8.17330693,36.1870891 7.4870495,36.1870891 Z M72.3741782,36.1870891 C71.6879208,36.1870891 71.1263366,36.7486733 71.1263366,37.4349307 L71.1263366,41.1784554 C71.1263366,41.8647129 71.6879208,42.426297 72.3741782,42.426297 C73.0604356,42.426297 73.6220198,41.8647129 73.6220198,41.1784554 L73.6220198,37.4349307 C73.6218614,36.7485149 73.0604356,36.1870891 72.3741782,36.1870891 Z" id="Shape" fill="#2B414D"></path>
                        <polygon id="Shape" fill="#E5E5E5" points="8.73473267 38.6827723 71.1261782 38.6827723 71.1261782 39.9306139 8.73473267 39.9306139"></polygon>
                        <path d="M36.8109307,11.8544158 L43.0501386,11.8544158 C44.1107327,11.8544158 44.9218218,12.665505 44.9218218,13.726099 C44.9218218,14.7866931 44.1107327,15.5977822 43.0501386,15.5977822 L36.8109307,15.5977822 C35.7503366,15.5977822 34.9392475,14.7866931 34.9392475,13.726099 C34.9392475,12.7279208 35.7503366,11.8544158 36.8109307,11.8544158 Z" id="Shape" fill="#E64A34"></path>
                        <path d="M31.1957228,38.6827723 L30.259802,39.9306139 L36.1869307,39.9306139 L36.935604,38.6827723 L31.1957228,38.6827723 Z M53.7813861,38.6827723 L47.0431683,38.6827723 C46.9807525,38.8700198 46.9807525,39.1195248 46.9807525,39.3690297 C46.9807525,39.6185347 46.9807525,39.8057822 47.0431683,39.9306139 L55.1540594,39.9306139 C54.6548911,39.4938614 54.0934653,39.1819406 53.5318812,38.8700198 L53.7813861,38.6827723 Z" id="Shape" fill="#394B54"></path>
                    </g>
                </g>
            </g>
        </g>
    </g>
</svg>