<?xml version="1.0" encoding="UTF-8"?>
<svg width="66px" height="89px" viewBox="0 0 66 89" version="1.1" xmlns="http://www.w3.org/2000/svg" xmlns:xlink="http://www.w3.org/1999/xlink">
    <!-- Generator: Sketch 50.2 (55047) - http://www.bohemiancoding.com/sketch -->
    <title>like</title>
    <desc>Created with Sketch.</desc>
    <defs></defs>
    <g id="Page-1" stroke="none" stroke-width="1" fill="none" fill-rule="evenodd">
        <g id="mockup" transform="translate(-1291.000000, -1181.000000)" fill-rule="nonzero">
            <g id="Section-2---Features" transform="translate(0.000000, 926.000000)">
                <g id="Feature-3" transform="translate(1144.000000, 255.000000)">
                    <g id="like" transform="translate(147.000000, 0.000000)">
                        <path d="M65.8519789,52.4964697 C65.539219,48.898686 62.2541953,46.0831504 58.5000317,46.0831504 L57.2486438,46.0831504 C61.1591873,46.0831504 64.287657,42.9546807 64.287657,39.0441372 C64.287657,37.3234354 63.5055831,35.7592876 62.2541953,34.5078997 C60.6900475,32.7871979 58.3436517,32.005124 55.9972559,32.005124 L36.1316042,32.005124 L37.539372,24.0274828 L38.7907599,18.2398575 C40.6678417,11.2008443 36.7572982,3.22337731 31.1260528,0.720601583 C30.3439789,0.407841689 29.718285,0.251287599 28.9362111,0.0949076517 C26.2770554,-0.374406332 25.4949815,1.03336148 25.1820475,1.34629551 C24.8692876,1.65905541 24.7127335,16.2063958 21.4278839,27.6252665 C21.4278839,27.6252665 20.332876,30.7537361 19.7071821,34.6642797 L16.1093984,34.6642797 C7.34968338,34.6642797 0.154290237,41.8596728 0.154290237,50.6193879 L0.154290237,68.6079578 C0.154290237,75.8033509 5.78553562,81.4345963 12.9809288,82.2166702 C14.8580106,82.3730501 16.5787124,83.3116781 18.1428602,84.563066 C19.2378681,85.5015198 21.4277098,86.1272137 24.2434195,86.7529077 C27.6846491,87.5349815 31.1260528,88.1606755 34.7236623,88.3170554 L51.7737784,88.3170554 L51.9301583,88.3170554 L52.2429182,88.3170554 C55.9970818,88.3170554 59.4383113,85.3449657 59.5948654,81.5908021 C59.7512454,77.9930185 57.0920897,74.8645488 53.6508602,74.395409 L53.6508602,74.239029 L55.371562,74.239029 C58.9693456,74.239029 62.2541953,71.5798734 62.7235092,67.8257098 C63.1928232,63.6022322 59.9079736,60.1610026 55.684496,60.1610026 L58.8129657,60.1610026 C62.8798892,60.1611768 66.1649129,56.5635673 65.8519789,52.4964697" id="Shape" fill="#FDC794"></path>
                        <g id="Group" transform="translate(12.538259, 33.609499)" fill="#F9A671">
                            <path d="M4.82270185,50.0151135 C4.50994195,50.0151135 4.19700792,49.8587335 3.88424802,49.7021794 C1.85078628,48.1380317 1.3814723,46.2609499 0.755778364,43.6016201 C0.599398417,42.8195462 0.44301847,42.0374723 0.130084433,41.0988443 C-0.0262955145,40.3167704 0.442844327,39.3781425 1.22509235,39.2217625 C2.00716623,39.0653826 2.9457942,39.5346966 3.10217414,40.3167704 C3.41493404,41.2552243 3.57148813,42.1938522 3.72786807,42.9759261 C4.35356201,45.6350818 4.50994195,46.4171557 5.60494987,47.3557836 C6.2306438,47.8250976 6.38702375,48.9199314 5.91770976,49.5456253 C5.76115567,49.8587335 5.29201583,50.0151135 4.82270185,50.0151135 Z" id="Shape"></path>
                            <path d="M7.01254354,9.81449604 C6.23046966,9.81449604 5.44839578,9.18880211 5.44839578,8.40672823 C5.29201583,6.52964644 5.60477573,4.96549868 5.91770976,3.24479683 C6.07408971,2.6191029 6.23046966,1.99340897 6.23046966,1.36771504 C6.3868496,0.585641161 7.16892348,-0.0400527704 7.9511715,0.116327177 C8.73324538,0.272707124 9.35893931,1.054781 9.20255937,1.83702902 C9.04617942,2.6191029 8.88979947,3.24479683 8.73324538,3.87049077 C8.42048549,5.27825858 8.10755145,6.68602639 8.2639314,8.09396834 C8.73324538,8.87586807 8.10755145,9.65811609 7.01254354,9.81449604 C7.16909763,9.81449604 7.16909763,9.81449604 7.01254354,9.81449604 Z" id="Shape"></path>
                            <path d="M45.4926332,14.0379736 L29.850285,14.0379736 C28.9118311,14.0379736 28.2861372,13.4122797 28.2861372,12.4738259 C28.2861372,11.535372 28.9118311,10.9096781 29.850285,10.9096781 L45.4926332,10.9096781 C46.4310871,10.9096781 47.056781,11.535372 47.056781,12.4738259 C47.056781,13.4122797 46.4310871,14.0379736 45.4926332,14.0379736 Z" id="Shape"></path>
                            <path d="M45.4926332,28.116 L34.5430765,28.116 C33.6046227,28.116 32.9789288,27.4903061 32.9789288,26.5518522 C32.9789288,25.6133984 33.6046227,24.9877045 34.5430765,24.9877045 L45.4926332,24.9877045 C46.4310871,24.9877045 47.056781,25.6133984 47.056781,26.5518522 C47.056781,27.4903061 46.4310871,28.116 45.4926332,28.116 Z" id="Shape"></path>
                            <path d="M42.3641636,42.1940264 L31.4146069,42.1940264 C30.476153,42.1940264 29.8504591,41.5683325 29.8504591,40.6298786 C29.8504591,39.6914248 30.476153,39.0657309 31.4146069,39.0657309 L42.3641636,39.0657309 C43.3026174,39.0657309 43.9283113,39.6914248 43.9283113,40.6298786 C43.9283113,41.5683325 43.3026174,42.1940264 42.3641636,42.1940264 Z" id="Shape"></path>
                        </g>
                    </g>
                </g>
            </g>
        </g>
    </g>
</svg>