<?xml version="1.0" encoding="UTF-8"?>
<svg width="80px" height="80px" viewBox="0 0 80 80" version="1.1" xmlns="http://www.w3.org/2000/svg" xmlns:xlink="http://www.w3.org/1999/xlink">
    <!-- Generator: Sketch 50.2 (55047) - http://www.bohemiancoding.com/sketch -->
    <title>sync</title>
    <desc>Created with Sketch.</desc>
    <defs></defs>
    <g id="Page-1" stroke="none" stroke-width="1" fill="none" fill-rule="evenodd">
        <g id="mockup" transform="translate(-316.000000, -1196.000000)" fill-rule="nonzero">
            <g id="Section-2---Features" transform="translate(0.000000, 926.000000)">
                <g id="Feature-1" transform="translate(162.000000, 270.000000)">
                    <g id="sync" transform="translate(154.000000, 0.000000)">
                        <g id="Group" transform="translate(35.000000, 0.000000)" fill="#E64A34">
                            <path d="M10.8745804,45.139375 C16.7420455,47.60375 20.5332168,53.28375 20.5332168,59.609375 C20.5332168,68.268125 13.4395804,75.3125 4.72027972,75.3125 L0,77.65625 L4.72027972,80 C16.0423427,80 25.2534965,70.8528125 25.2534965,59.609375 C25.2534965,51.3964063 20.3313462,44.0217188 12.7159615,40.823125 L4.72027972,37.4539063 L0,37.4539063 L4.72027972,42.5460938 L10.8745804,45.139375 Z" id="Shape"></path>
                            <path d="M29.2912238,24.4003125 C27.7185839,24.4003125 26.1774126,24.6326563 24.7101923,25.075625 C25.0681469,23.5575 25.2534965,21.988125 25.2534965,20.390625 C25.2534965,9.1471875 16.0423427,0 4.72027972,0 L0,2.34375 L4.72027972,4.6875 C13.4395804,4.6875 20.5332168,11.731875 20.5332168,20.390625 C20.5332168,24.4653125 18.978514,28.3060938 16.1496503,31.2415625 L13.8730594,28.9807813 L10.7137762,39.960625 L21.7704021,36.8232813 L19.4873601,34.5560938 C19.9724476,34.0578125 20.4290559,33.539375 20.8563986,33.0023438 C22.9518881,30.5145313 26.0254196,29.0876563 29.2912238,29.0876563 C35.3503322,29.0878125 40.2797203,33.9829688 40.2797203,40 C40.2797203,46.0170313 35.3503322,50.9121875 29.2912238,50.9121875 L29.2912238,55.5996875 C37.9530944,55.5996875 45,48.6017188 45,40 C45,31.3982813 37.9530944,24.4003125 29.2912238,24.4003125 Z" id="Shape"></path>
                        </g>
                        <g id="Group" fill="#F7A847">
                            <path d="M19.609375,20.390625 C19.609375,28.6035938 24.4973438,35.9782813 32.0598438,39.176875 L40,42.5460938 L40,37.4539063 L33.8884375,34.860625 C28.0617188,32.39625 24.296875,26.71625 24.296875,20.390625 C24.296875,11.731875 31.34125,4.6875 40,4.6875 L40,0 C28.7565625,0 19.609375,9.1471875 19.609375,20.390625 Z" id="Shape"></path>
                            <path d="M24.296875,59.609375 C24.296875,55.5346875 25.8407813,51.6939063 28.65,48.7584375 L30.9107813,51.0192188 L34.048125,40.039375 L23.0682813,43.1767188 L25.3354688,45.4439063 C24.85375,45.9421875 24.4003125,46.460625 23.9759375,46.9976563 C21.895,49.485625 18.8428125,50.9123438 15.5996875,50.9123438 C9.58265625,50.9121875 4.6875,46.0170313 4.6875,40 C4.6875,33.9829688 9.58265625,29.0878125 15.5996875,29.0878125 L15.5996875,24.4003125 C6.99796875,24.4003125 0,31.3982813 0,40 C0,48.6017188 6.99796875,55.5996875 15.5996875,55.5996875 C17.1614063,55.5996875 18.691875,55.3673438 20.1489063,54.924375 C19.7934375,56.4425 19.609375,58.011875 19.609375,59.609375 C19.609375,70.8528125 28.7565625,80 40,80 L40,75.3125 C31.34125,75.3125 24.296875,68.268125 24.296875,59.609375 Z" id="Shape"></path>
                        </g>
                    </g>
                </g>
            </g>
        </g>
    </g>
</svg>