<?xml version="1.0" encoding="UTF-8"?>
<svg width="560px" height="194px" viewBox="0 0 560 194" version="1.1" xmlns="http://www.w3.org/2000/svg" xmlns:xlink="http://www.w3.org/1999/xlink">
    <!-- Generator: Sketch 50.2 (55047) - http://www.bohemiancoding.com/sketch -->
    <title>Line BG</title>
    <desc>Created with Sketch.</desc>
    <defs>
        <rect id="path-1" x="0" y="0" width="569" height="211"></rect>
    </defs>
    <g id="Page-1" stroke="none" stroke-width="1" fill="none" fill-rule="evenodd">
        <g id="mockup" transform="translate(0.000000, -731.000000)">
            <g id="Section-1---Introduction" transform="translate(0.000000, 183.000000)">
                <g id="Line-BG" transform="translate(0.000000, 531.000000)">
                    <mask id="mask-2" fill="white">
                        <use xlink:href="#path-1"></use>
                    </mask>
                    <g id="Mask"></g>
                    <g opacity="0.348493304" mask="url(#mask-2)" stroke="#000000" stroke-width="0.5">
                        <g transform="translate(806.436529, 464.016683) rotate(29.000000) translate(-806.436529, -464.016683) translate(-176.063471, -163.983317)">
                            <path d="M0,603.111644 C0,603.111644 83.0809119,683.364403 290.783192,576.360724 C498.485471,469.357045 684.119384,538.666246 771.094713,552.041706 C858.070043,565.417166 968.411879,581.224528 1042.40582,462.06134 C1116.39975,342.898152 1237.1267,288.180362 1351.36296,288.180362 C1465.59921,288.180362 1613.58709,251.701835 1725.22706,172.665027 C1836.86704,93.6282189 1856.33912,114.299384 1964.08468,0" id="Stroke-1"></path>
                            <path d="M0,622.08358 C0,622.08358 83.0809119,702.33634 290.783192,595.332661 C498.485471,488.328982 684.119384,557.638183 771.094713,571.013643 C858.070043,584.389103 968.411879,600.196464 1042.40582,481.033277 C1116.39975,361.870089 1237.1267,307.152299 1351.36296,307.152299 C1465.59921,307.152299 1613.58709,270.673772 1725.22706,191.636964 C1836.86704,112.600155 1856.33912,133.271321 1964.08468,18.9719366" id="Stroke-3"></path>
                            <path d="M0,643.427009 C0,643.427009 83.0809119,723.679768 290.783192,616.676089 C498.485471,509.672411 684.119384,578.981612 771.094713,592.357072 C858.070043,605.732531 968.411879,621.539893 1042.40582,502.376705 C1116.39975,383.213518 1237.1267,328.495727 1351.36296,328.495727 C1465.59921,328.495727 1613.58709,292.0172 1725.22706,212.980392 C1836.86704,133.943584 1856.33912,154.614749 1964.08468,40.3153652" id="Stroke-5"></path>
                            <path d="M0,661.2132 C0,661.2132 83.0809119,741.465959 290.783192,634.46228 C498.485471,527.458601 684.119384,596.767802 771.094713,610.143262 C858.070043,623.518722 968.411879,639.326084 1042.40582,520.162896 C1116.39975,400.999708 1237.1267,346.281918 1351.36296,346.281918 C1465.59921,346.281918 1613.58709,309.803391 1725.22706,230.766583 C1836.86704,151.729775 1856.33912,172.40094 1964.08468,58.1015558" id="Stroke-7"></path>
                            <path d="M0,681.370882 C0,681.370882 83.0809119,761.623641 290.783192,654.619963 C498.485471,547.616284 684.119384,616.925485 771.094713,630.300945 C858.070043,643.676405 968.411879,659.483766 1042.40582,540.320578 C1116.39975,421.157391 1237.1267,366.4396 1351.36296,366.4396 C1465.59921,366.4396 1613.58709,329.961074 1725.22706,250.924265 C1836.86704,171.887457 1856.33912,192.558622 1964.08468,78.2592384" id="Stroke-9"></path>
                            <path d="M0,700.342819 C0,700.342819 83.0809119,780.595578 290.783192,673.591899 C498.485471,566.58822 684.119384,635.897421 771.094713,649.272881 C858.070043,662.648341 968.411879,678.455703 1042.40582,559.292515 C1116.39975,440.129327 1237.1267,385.411537 1351.36296,385.411537 C1465.59921,385.411537 1613.58709,348.93301 1725.22706,269.896202 C1836.86704,190.859394 1856.33912,211.530559 1964.08468,97.2311749" id="Stroke-11"></path>
                            <path d="M0,720.500501 C0,720.500501 83.0809119,800.75326 290.783192,693.749582 C498.485471,586.745903 684.119384,656.055104 771.094713,669.430564 C858.070043,682.806024 968.411879,698.613385 1042.40582,579.450198 C1116.39975,460.28701 1237.1267,405.56922 1351.36296,405.56922 C1465.59921,405.56922 1613.58709,369.090693 1725.22706,290.053885 C1836.86704,211.017076 1856.33912,231.688242 1964.08468,117.388858" id="Stroke-13"></path>
                            <path d="M0,740.658184 C0,740.658184 83.0809119,820.910943 290.783192,713.907264 C498.485471,606.903586 684.119384,676.212787 771.094713,689.588246 C858.070043,702.963706 968.411879,718.771068 1042.40582,599.60788 C1116.39975,480.444693 1237.1267,425.726902 1351.36296,425.726902 C1465.59921,425.726902 1613.58709,389.248375 1725.22706,310.211567 C1836.86704,231.174759 1856.33912,251.845924 1964.08468,137.54654" id="Stroke-15"></path>
                            <path d="M0,758.444375 C0,758.444375 83.0809119,838.697134 290.783192,731.693455 C498.485471,624.689776 684.119384,693.998977 771.094713,707.374437 C858.070043,720.749897 968.411879,736.557258 1042.40582,617.394071 C1116.39975,498.230883 1237.1267,443.513093 1351.36296,443.513093 C1465.59921,443.513093 1613.58709,407.034566 1725.22706,327.997758 C1836.86704,248.96095 1856.33912,269.632115 1964.08468,155.332731" id="Stroke-17"></path>
                            <path d="M0,778.602057 C0,778.602057 83.0809119,858.854816 290.783192,751.851138 C498.485471,644.847459 684.119384,714.15666 771.094713,727.53212 C858.070043,740.907579 968.411879,756.714941 1042.40582,637.551753 C1116.39975,518.388566 1237.1267,463.670775 1351.36296,463.670775 C1465.59921,463.670775 1613.58709,427.192249 1725.22706,348.15544 C1836.86704,269.118632 1856.33912,289.789797 1964.08468,175.490413" id="Stroke-19"></path>
                            <path d="M0,797.573994 C0,797.573994 83.0809119,877.826753 290.783192,770.823074 C498.485471,663.819395 684.119384,733.128596 771.094713,746.504056 C858.070043,759.879516 968.411879,775.686878 1042.40582,656.52369 C1116.39975,537.360502 1237.1267,482.642712 1351.36296,482.642712 C1465.59921,482.642712 1613.58709,446.164185 1725.22706,367.127377 C1836.86704,288.090569 1856.33912,308.761734 1964.08468,194.46235" id="Stroke-21"></path>
                            <path d="M0,816.54593 C0,816.54593 83.0809119,896.798689 290.783192,789.795011 C498.485471,682.791332 684.119384,752.100533 771.094713,765.475993 C858.070043,778.851453 968.411879,794.658814 1042.40582,675.495627 C1116.39975,556.332439 1237.1267,501.614649 1351.36296,501.614649 C1465.59921,501.614649 1613.58709,465.136122 1725.22706,386.099314 C1836.86704,307.062505 1856.33912,327.733671 1964.08468,213.434286" id="Stroke-23"></path>
                            <path d="M0,836.703613 C0,836.703613 83.0809119,916.956372 290.783192,809.952693 C498.485471,702.949015 684.119384,772.258216 771.094713,785.633675 C858.070043,799.009135 968.411879,814.816497 1042.40582,695.653309 C1116.39975,576.490121 1237.1267,521.772331 1351.36296,521.772331 C1465.59921,521.772331 1613.58709,485.293804 1725.22706,406.256996 C1836.86704,327.220188 1856.33912,347.891353 1964.08468,233.591969" id="Stroke-25"></path>
                            <path d="M0,856.861296 C0,856.861296 83.0809119,937.114055 290.783192,830.110376 C498.485471,723.106697 684.119384,792.415898 771.094713,805.791358 C858.070043,819.166818 968.411879,834.974179 1042.40582,715.810992 C1116.39975,596.647804 1237.1267,541.930014 1351.36296,541.930014 C1465.59921,541.930014 1613.58709,505.451487 1725.22706,426.414679 C1836.86704,347.377871 1856.33912,368.049036 1964.08468,253.749652" id="Stroke-27"></path>
                            <path d="M0,875.833232 C0,875.833232 83.0809119,956.085991 290.783192,849.082312 C498.485471,742.078634 684.119384,811.387835 771.094713,824.763295 C858.070043,838.138754 968.411879,853.946116 1042.40582,734.782928 C1116.39975,615.619741 1237.1267,560.90195 1351.36296,560.90195 C1465.59921,560.90195 1613.58709,524.423424 1725.22706,445.386615 C1836.86704,366.349807 1856.33912,387.020972 1964.08468,272.721588" id="Stroke-29"></path>
                            <path d="M0,895.990915 C0,895.990915 83.0809119,976.243674 290.783192,869.239995 C498.485471,762.236316 684.119384,831.545517 771.094713,844.920977 C858.070043,858.296437 968.411879,874.103799 1042.40582,754.940611 C1116.39975,635.777423 1237.1267,581.059633 1351.36296,581.059633 C1465.59921,581.059633 1613.58709,544.581106 1725.22706,465.544298 C1836.86704,386.50749 1856.33912,407.178655 1964.08468,292.879271" id="Stroke-31"></path>
                            <path d="M0,913.777105 C0,913.777105 83.0809119,994.029864 290.783192,887.026186 C498.485471,780.022507 684.119384,849.331708 771.094713,862.707168 C858.070043,876.082628 968.411879,891.889989 1042.40582,772.726801 C1116.39975,653.563614 1237.1267,598.845824 1351.36296,598.845824 C1465.59921,598.845824 1613.58709,562.367297 1725.22706,483.330488 C1836.86704,404.29368 1856.33912,424.964846 1964.08468,310.665461" id="Stroke-33"></path>
                            <path d="M0,933.934788 C0,933.934788 83.0809119,1014.18755 290.783192,907.183868 C498.485471,800.180189 684.119384,869.48939 771.094713,882.86485 C858.070043,896.24031 968.411879,912.047672 1042.40582,792.884484 C1116.39975,673.721296 1237.1267,619.003506 1351.36296,619.003506 C1465.59921,619.003506 1613.58709,582.524979 1725.22706,503.488171 C1836.86704,424.451363 1856.33912,445.122528 1964.08468,330.823144" id="Stroke-35"></path>
                            <path d="M0,954.092471 C0,954.092471 83.0809119,1034.34523 290.783192,927.341551 C498.485471,820.337872 684.119384,889.647073 771.094713,903.022533 C858.070043,916.397993 968.411879,932.205354 1042.40582,813.042167 C1116.39975,693.878979 1237.1267,639.161189 1351.36296,639.161189 C1465.59921,639.161189 1613.58709,602.682662 1725.22706,523.645854 C1836.86704,444.609046 1856.33912,465.280211 1964.08468,350.980827" id="Stroke-37"></path>
                            <path d="M0,973.064407 C0,973.064407 83.0809119,1053.31717 290.783192,946.313487 C498.485471,839.309809 684.119384,908.61901 771.094713,921.994469 C858.070043,935.369929 968.411879,951.177291 1042.40582,832.014103 C1116.39975,712.850916 1237.1267,658.133125 1351.36296,658.133125 C1465.59921,658.133125 1613.58709,621.654598 1725.22706,542.61779 C1836.86704,463.580982 1856.33912,484.252147 1964.08468,369.952763" id="Stroke-39"></path>
                            <path d="M0,993.22209 C0,993.22209 83.0809119,1073.47485 290.783192,966.47117 C498.485471,859.467491 684.119384,928.776692 771.094713,942.152152 C858.070043,955.527612 968.411879,971.334974 1042.40582,852.171786 C1116.39975,733.008598 1237.1267,678.290808 1351.36296,678.290808 C1465.59921,678.290808 1613.58709,641.812281 1725.22706,562.775473 C1836.86704,483.738665 1856.33912,504.40983 1964.08468,390.110446" id="Stroke-41"></path>
                            <path d="M0,1012.19403 C0,1012.19403 83.0809119,1092.44679 290.783192,985.443107 C498.485471,878.439428 684.119384,947.748629 771.094713,961.124089 C858.070043,974.499549 968.411879,990.30691 1042.40582,871.143722 C1116.39975,751.980535 1237.1267,697.262744 1351.36296,697.262744 C1465.59921,697.262744 1613.58709,660.784218 1725.22706,581.747409 C1836.86704,502.710601 1856.33912,523.381767 1964.08468,409.082382" id="Stroke-43"></path>
                            <path d="M0,1032.35171 C0,1032.35171 83.0809119,1112.60447 290.783192,1005.60079 C498.485471,898.59711 684.119384,967.906311 771.094713,981.281771 C858.070043,994.657231 968.411879,1010.46459 1042.40582,891.301405 C1116.39975,772.138217 1237.1267,717.420427 1351.36296,717.420427 C1465.59921,717.420427 1613.58709,680.9419 1725.22706,601.905092 C1836.86704,522.868284 1856.33912,543.539449 1964.08468,429.240065" id="Stroke-45"></path>
                            <path d="M0,1051.32365 C0,1051.32365 83.0809119,1131.5764 290.783192,1024.57273 C498.485471,917.569047 684.119384,986.878248 771.094713,1000.25371 C858.070043,1013.62917 968.411879,1029.43653 1042.40582,910.273342 C1116.39975,791.110154 1237.1267,736.392364 1351.36296,736.392364 C1465.59921,736.392364 1613.58709,699.913837 1725.22706,620.877029 C1836.86704,541.84022 1856.33912,562.511386 1964.08468,448.212002" id="Stroke-47"></path>
                            <path d="M0,1069.10984 C0,1069.10984 83.0809119,1149.3626 290.783192,1042.35892 C498.485471,935.355238 684.119384,1004.66444 771.094713,1018.0399 C858.070043,1031.41536 968.411879,1047.22272 1042.40582,928.059532 C1116.39975,808.896344 1237.1267,754.178554 1351.36296,754.178554 C1465.59921,754.178554 1613.58709,717.700027 1725.22706,638.663219 C1836.86704,559.626411 1856.33912,580.297576 1964.08468,465.998192" id="Stroke-49"></path>
                            <path d="M0,1089.26752 C0,1089.26752 83.0809119,1169.52028 290.783192,1062.5166 C498.485471,955.51292 684.119384,1024.82212 771.094713,1038.19758 C858.070043,1051.57304 968.411879,1067.3804 1042.40582,948.217215 C1116.39975,829.054027 1237.1267,774.336237 1351.36296,774.336237 C1465.59921,774.336237 1613.58709,737.85771 1725.22706,658.820902 C1836.86704,579.784094 1856.33912,600.455259 1964.08468,486.155875" id="Stroke-51"></path>
                            <path d="M0,1109.4252 C0,1109.4252 83.0809119,1189.67796 290.783192,1082.67428 C498.485471,975.670603 684.119384,1044.9798 771.094713,1058.35526 C858.070043,1071.73072 968.411879,1087.53809 1042.40582,968.374897 C1116.39975,849.21171 1237.1267,794.493919 1351.36296,794.493919 C1465.59921,794.493919 1613.58709,758.015393 1725.22706,678.978584 C1836.86704,599.941776 1856.33912,620.612941 1964.08468,506.313557" id="Stroke-53"></path>
                            <path d="M0,1129.58288 C0,1129.58288 83.0809119,1209.83564 290.783192,1102.83196 C498.485471,995.828285 684.119384,1065.13749 771.094713,1078.51295 C858.070043,1091.88841 968.411879,1107.69577 1042.40582,988.53258 C1116.39975,869.369392 1237.1267,814.651602 1351.36296,814.651602 C1465.59921,814.651602 1613.58709,778.173075 1725.22706,699.136267 C1836.86704,620.099459 1856.33912,640.770624 1964.08468,526.47124" id="Stroke-55"></path>
                            <path d="M0,1148.55482 C0,1148.55482 83.0809119,1228.80758 290.783192,1121.8039 C498.485471,1014.80022 684.119384,1084.10942 771.094713,1097.48488 C858.070043,1110.86034 968.411879,1126.6677 1042.40582,1007.50452 C1116.39975,888.341329 1237.1267,833.623539 1351.36296,833.623539 C1465.59921,833.623539 1613.58709,797.145012 1725.22706,718.108204 C1836.86704,639.071395 1856.33912,659.742561 1964.08468,545.443177" id="Stroke-57"></path>
                            <path d="M0,1168.7125 C0,1168.7125 83.0809119,1248.96526 290.783192,1141.96158 C498.485471,1034.9579 684.119384,1104.26711 771.094713,1117.64257 C858.070043,1131.01803 968.411879,1146.82539 1042.40582,1027.6622 C1116.39975,908.499011 1237.1267,853.781221 1351.36296,853.781221 C1465.59921,853.781221 1613.58709,817.302694 1725.22706,738.265886 C1836.86704,659.229078 1856.33912,679.900243 1964.08468,565.600859" id="Stroke-59"></path>
                            <path d="M0,1186.49869 C0,1186.49869 83.0809119,1266.75145 290.783192,1159.74777 C498.485471,1052.7441 684.119384,1122.0533 771.094713,1135.42876 C858.070043,1148.80422 968.411879,1164.61158 1042.40582,1045.44839 C1116.39975,926.285202 1237.1267,871.567412 1351.36296,871.567412 C1465.59921,871.567412 1613.58709,835.088885 1725.22706,756.052077 C1836.86704,677.015269 1856.33912,697.686434 1964.08468,583.38705" id="Stroke-61"></path>
                            <path d="M0,1206.65638 C0,1206.65638 83.0809119,1286.90914 290.783192,1179.90546 C498.485471,1072.90178 684.119384,1142.21098 771.094713,1155.58644 C858.070043,1168.9619 968.411879,1184.76926 1042.40582,1065.60607 C1116.39975,946.442885 1237.1267,891.725094 1351.36296,891.725094 C1465.59921,891.725094 1613.58709,855.246568 1725.22706,776.209759 C1836.86704,697.172951 1856.33912,717.844116 1964.08468,603.544732" id="Stroke-63"></path>
                            <path d="M0,1226.81406 C0,1226.81406 83.0809119,1307.06682 290.783192,1200.06314 C498.485471,1093.05946 684.119384,1162.36866 771.094713,1175.74412 C858.070043,1189.11958 968.411879,1204.92694 1042.40582,1085.76375 C1116.39975,966.600567 1237.1267,911.882777 1351.36296,911.882777 C1465.59921,911.882777 1613.58709,875.40425 1725.22706,796.367442 C1836.86704,717.330634 1856.33912,738.001799 1964.08468,623.702415" id="Stroke-65"></path>
                        </g>
                    </g>
                </g>
            </g>
        </g>
    </g>
</svg>